PathFileType	3	(X/Y/Z)	walking_2__view1_aligned.trc
DataRate	CameraRate	NumFrames	NumMarkers	Units	OrigDataRate	OrigDataStartFrame	OrigNumFrames
100.0	100.0	6	19	mm	100.0	205	6300
Frame#	Time	pelvis			neck			head			hip_left			hip_right			knee_left			knee_right			ankle_left			ankle_right			heel_left			heel_right			toe_left			toe_right			shoulder_left			shoulder_right			elbow_left			elbow_right			wrist_left			wrist_right			
		X1	Y1	Z1	X2	Y2	Z2	X3	Y3	Z3	X4	Y4	Z4	X5	Y5	Z5	X6	Y6	Z6	X7	Y7	Z7	X8	Y8	Z8	X9	Y9	Z9	X10	Y10	Z10	X11	Y11	Z11	X12	Y12	Z12	X13	Y13	Z13	X14	Y14	Z14	X15	Y15	Z15	X16	Y16	Z16	X17	Y17	Z17	X18	Y18	Z18	X19	Y19	Z19	
205	2.04000	38.693652	930.369449	146.959349	-4.536031	1499.916029	243.048840	-20.568264	1601.377528	377.254899	117.247334	933.134540	146.795230	-39.860396	927.604299	147.123766	141.530029	480.708610	93.871246	-85.326590	532.975783	376.835961	107.969181	191.673596	-240.203577	-89.940660	137.110861	397.889098	95.167261	179.164449	-299.387481	-85.658792	88.372823	371.389537	141.748217	17.354132	-150.517825	-103.921346	87.321046	575.872397	182.304513	1470.922937	254.361186	-172.371115	1431.407519	180.761706	220.018424	1192.970157	323.039828	-207.432803	1149.536227	202.578258	52.280202	1191.033594	507.600954	-161.361800	1136.657436	431.648581
206	2.05000	35.843345	931.150471	147.358452	-7.165326	1500.168573	243.323497	-22.303632	1601.088067	377.709769	114.465310	933.745821	147.234620	-42.778986	928.555061	147.482582	139.938873	483.703527	104.762681	-87.842080	531.973765	368.991937	108.241245	192.641438	-222.063633	-93.062448	134.291509	387.176525	95.858582	179.560532	-280.578881	-88.903134	85.184445	360.388894	140.485318	20.555256	-131.289990	-107.203720	85.055284	566.513963	179.430361	1471.802982	252.982949	-175.225792	1431.613993	182.990329	217.906604	1193.727131	318.639129	-210.340223	1149.602568	204.749417	51.698359	1188.600278	504.499429	-160.890594	1134.679556	434.335510
207	2.06000	32.993038	931.931492	147.757555	-9.794620	1500.421117	243.598154	-24.039001	1600.798607	378.164639	111.683285	934.357102	147.674009	-45.697577	929.505823	147.841398	138.347717	486.698443	115.654115	-90.357571	530.971748	361.147914	108.513308	193.609279	-203.923688	-96.184237	131.472156	376.463953	96.549902	179.956615	-261.770281	-92.147476	81.996067	349.388251	139.222420	23.756379	-112.062155	-110.486094	82.789522	557.155529	176.556208	1472.683027	251.604711	-178.080469	1431.820466	185.218952	215.794784	1194.484105	314.238431	-213.247643	1149.668909	206.920575	51.116517	1186.166961	501.397904	-160.419387	1132.701676	437.022439
208	2.07000	30.142731	932.712514	148.156659	-12.423915	1500.673662	243.872811	-25.774369	1600.509146	378.619509	108.901260	934.968383	148.113398	-48.616167	930.456585	148.200214	136.756562	489.693359	126.545549	-92.873061	529.969730	353.303890	108.785371	194.577121	-185.783744	-99.306025	128.652803	365.751380	97.241223	180.352698	-242.961681	-95.391818	78.807689	338.387609	137.959521	26.957503	-92.834320	-113.768468	80.523760	547.797095	173.682056	1473.563072	250.226473	-180.935147	1432.026940	187.447575	213.682965	1195.241079	309.837733	-216.155063	1149.735250	209.091734	50.534674	1183.733645	498.296378	-159.948180	1130.723796	439.709367
209	2.08000	27.292423	933.493536	148.555762	-15.053209	1500.926206	244.147469	-27.509738	1600.219685	379.074379	106.119235	935.579665	148.552788	-51.534758	931.407347	148.559030	135.165406	492.688275	137.436983	-95.388552	528.967712	345.459867	109.057434	195.544963	-167.643799	-102.427813	125.833450	355.038807	97.932544	180.748781	-224.153080	-98.636161	75.619311	327.386966	136.696622	30.158626	-73.606484	-117.050842	78.257998	538.438661	170.807903	1474.443117	248.848236	-183.789824	1432.233414	189.676198	211.571145	1195.998054	305.437035	-219.062483	1149.801591	211.262892	49.952831	1181.300329	495.194853	-159.476973	1128.745916	442.396296
210	2.09000	24.442116	934.274557	148.954865	-17.682504	1501.178750	244.422126	-29.245106	1599.930224	379.529250	103.337211	936.190946	148.992177	-54.453348	932.358110	148.917846	133.574250	495.683191	148.328418	-97.904042	527.965695	337.615843	109.329497	196.512805	-149.503855	-105.549601	123.014097	344.326234	98.623864	181.144864	-205.344480	-101.880503	72.430933	316.386324	135.433724	33.359750	-54.378649	-120.333216	75.992236	529.080227	167.933751	1475.323162	247.469998	-186.644501	1432.439888	191.904821	209.459325	1196.755028	301.036337	-221.969903	1149.867932	213.434051	49.370989	1178.867012	492.093327	-159.005766	1126.768036	445.083225
